<mxfile host="app.diagrams.net" agent="Mozilla/5.0 (X11; Linux x86_64) AppleWebKit/537.36 (KHTML, like Gecko) Chrome/130.0.0.0 Safari/537.36" version="26.0.16">
  <diagram name="Page-1" id="tY160nIjRVUeN9yf9rYt">
    <mxGraphModel dx="1674" dy="731" grid="1" gridSize="10" guides="1" tooltips="1" connect="1" arrows="1" fold="1" page="1" pageScale="1" pageWidth="2339" pageHeight="3300" math="0" shadow="0">
      <root>
        <mxCell id="0" />
        <mxCell id="1" parent="0" />
        <mxCell id="fzBJJGRwk2IUik0zCbTJ-2" value="Owner" style="rounded=0;whiteSpace=wrap;html=1;" vertex="1" parent="1">
          <mxGeometry x="35" y="1775.5" width="120" height="50" as="geometry" />
        </mxCell>
        <mxCell id="fzBJJGRwk2IUik0zCbTJ-7" value="Employee" style="rounded=0;whiteSpace=wrap;html=1;" vertex="1" parent="1">
          <mxGeometry x="320" y="1780.5" width="120" height="45" as="geometry" />
        </mxCell>
        <mxCell id="fzBJJGRwk2IUik0zCbTJ-8" value="" style="endArrow=none;html=1;rounded=0;entryX=0.5;entryY=1;entryDx=0;entryDy=0;" edge="1" parent="1" target="fzBJJGRwk2IUik0zCbTJ-7">
          <mxGeometry width="50" height="50" relative="1" as="geometry">
            <mxPoint x="380" y="1920" as="sourcePoint" />
            <mxPoint x="450" y="1865" as="targetPoint" />
          </mxGeometry>
        </mxCell>
        <mxCell id="fzBJJGRwk2IUik0zCbTJ-9" value="handle" style="rhombus;whiteSpace=wrap;html=1;" vertex="1" parent="1">
          <mxGeometry x="340" y="1870" width="80" height="60" as="geometry" />
        </mxCell>
        <mxCell id="fzBJJGRwk2IUik0zCbTJ-10" value="" style="endArrow=none;html=1;rounded=0;entryX=0.5;entryY=1;entryDx=0;entryDy=0;" edge="1" parent="1" target="fzBJJGRwk2IUik0zCbTJ-9">
          <mxGeometry width="50" height="50" relative="1" as="geometry">
            <mxPoint x="380" y="2040" as="sourcePoint" />
            <mxPoint x="460" y="2040" as="targetPoint" />
          </mxGeometry>
        </mxCell>
        <mxCell id="fzBJJGRwk2IUik0zCbTJ-11" value="Customer" style="rounded=0;whiteSpace=wrap;html=1;" vertex="1" parent="1">
          <mxGeometry x="320" y="1980" width="120" height="50" as="geometry" />
        </mxCell>
        <mxCell id="fzBJJGRwk2IUik0zCbTJ-12" value="" style="endArrow=none;html=1;rounded=0;exitX=1;exitY=0.5;exitDx=0;exitDy=0;" edge="1" parent="1" source="fzBJJGRwk2IUik0zCbTJ-2" target="fzBJJGRwk2IUik0zCbTJ-5">
          <mxGeometry width="50" height="50" relative="1" as="geometry">
            <mxPoint x="160" y="1840" as="sourcePoint" />
            <mxPoint x="280" y="1840" as="targetPoint" />
          </mxGeometry>
        </mxCell>
        <mxCell id="fzBJJGRwk2IUik0zCbTJ-5" value="supervise" style="rhombus;whiteSpace=wrap;html=1;" vertex="1" parent="1">
          <mxGeometry x="190" y="1765.5" width="80" height="70" as="geometry" />
        </mxCell>
        <mxCell id="fzBJJGRwk2IUik0zCbTJ-13" value="" style="endArrow=none;html=1;rounded=0;exitX=0.5;exitY=0;exitDx=0;exitDy=0;" edge="1" parent="1" source="fzBJJGRwk2IUik0zCbTJ-14">
          <mxGeometry width="50" height="50" relative="1" as="geometry">
            <mxPoint x="380" y="2150" as="sourcePoint" />
            <mxPoint x="380" y="2100" as="targetPoint" />
            <Array as="points">
              <mxPoint x="380" y="2040" />
            </Array>
          </mxGeometry>
        </mxCell>
        <mxCell id="fzBJJGRwk2IUik0zCbTJ-14" value="provide" style="rhombus;whiteSpace=wrap;html=1;" vertex="1" parent="1">
          <mxGeometry x="340" y="2070" width="80" height="50" as="geometry" />
        </mxCell>
        <mxCell id="fzBJJGRwk2IUik0zCbTJ-17" value="" style="endArrow=none;html=1;rounded=0;entryX=0.5;entryY=1;entryDx=0;entryDy=0;" edge="1" parent="1" target="fzBJJGRwk2IUik0zCbTJ-14">
          <mxGeometry width="50" height="50" relative="1" as="geometry">
            <mxPoint x="380" y="2170" as="sourcePoint" />
            <mxPoint x="260" y="2210" as="targetPoint" />
          </mxGeometry>
        </mxCell>
        <mxCell id="fzBJJGRwk2IUik0zCbTJ-18" value="Feedback" style="rounded=0;whiteSpace=wrap;html=1;" vertex="1" parent="1">
          <mxGeometry x="320" y="2170" width="120" height="40" as="geometry" />
        </mxCell>
        <mxCell id="fzBJJGRwk2IUik0zCbTJ-22" value="" style="endArrow=none;html=1;rounded=0;exitX=1;exitY=0.5;exitDx=0;exitDy=0;" edge="1" parent="1" source="fzBJJGRwk2IUik0zCbTJ-11">
          <mxGeometry width="50" height="50" relative="1" as="geometry">
            <mxPoint x="520" y="2060" as="sourcePoint" />
            <mxPoint x="500" y="2005" as="targetPoint" />
          </mxGeometry>
        </mxCell>
        <mxCell id="fzBJJGRwk2IUik0zCbTJ-23" value="place" style="rhombus;whiteSpace=wrap;html=1;" vertex="1" parent="1">
          <mxGeometry x="500" y="1982.5" width="80" height="45" as="geometry" />
        </mxCell>
        <mxCell id="fzBJJGRwk2IUik0zCbTJ-24" value="" style="endArrow=none;html=1;rounded=0;exitX=1;exitY=0.5;exitDx=0;exitDy=0;" edge="1" parent="1" source="fzBJJGRwk2IUik0zCbTJ-23">
          <mxGeometry width="50" height="50" relative="1" as="geometry">
            <mxPoint x="640" y="2090" as="sourcePoint" />
            <mxPoint x="640" y="2005" as="targetPoint" />
          </mxGeometry>
        </mxCell>
        <mxCell id="fzBJJGRwk2IUik0zCbTJ-25" value="Order" style="rounded=0;whiteSpace=wrap;html=1;" vertex="1" parent="1">
          <mxGeometry x="640" y="1982.5" width="120" height="45" as="geometry" />
        </mxCell>
        <mxCell id="fzBJJGRwk2IUik0zCbTJ-26" value="" style="endArrow=none;html=1;rounded=0;exitX=1;exitY=0.5;exitDx=0;exitDy=0;" edge="1" parent="1" source="fzBJJGRwk2IUik0zCbTJ-25">
          <mxGeometry width="50" height="50" relative="1" as="geometry">
            <mxPoint x="740" y="2110" as="sourcePoint" />
            <mxPoint x="810" y="2005" as="targetPoint" />
          </mxGeometry>
        </mxCell>
        <mxCell id="fzBJJGRwk2IUik0zCbTJ-27" value="" style="endArrow=none;html=1;rounded=0;exitX=0.5;exitY=0;exitDx=0;exitDy=0;entryX=0.5;entryY=1;entryDx=0;entryDy=0;" edge="1" parent="1" source="fzBJJGRwk2IUik0zCbTJ-25" target="fzBJJGRwk2IUik0zCbTJ-29">
          <mxGeometry width="50" height="50" relative="1" as="geometry">
            <mxPoint x="700" y="1970" as="sourcePoint" />
            <mxPoint x="700" y="1920" as="targetPoint" />
          </mxGeometry>
        </mxCell>
        <mxCell id="fzBJJGRwk2IUik0zCbTJ-28" value="" style="endArrow=none;html=1;rounded=0;" edge="1" parent="1" source="fzBJJGRwk2IUik0zCbTJ-31">
          <mxGeometry width="50" height="50" relative="1" as="geometry">
            <mxPoint x="700" y="2090" as="sourcePoint" />
            <mxPoint x="700" y="2030" as="targetPoint" />
          </mxGeometry>
        </mxCell>
        <mxCell id="fzBJJGRwk2IUik0zCbTJ-29" value="include" style="rhombus;whiteSpace=wrap;html=1;" vertex="1" parent="1">
          <mxGeometry x="660" y="1820" width="80" height="47.5" as="geometry" />
        </mxCell>
        <mxCell id="fzBJJGRwk2IUik0zCbTJ-30" value="require" style="rhombus;whiteSpace=wrap;html=1;" vertex="1" parent="1">
          <mxGeometry x="810" y="1977.5" width="80" height="55" as="geometry" />
        </mxCell>
        <mxCell id="fzBJJGRwk2IUik0zCbTJ-32" style="edgeStyle=orthogonalEdgeStyle;rounded=0;orthogonalLoop=1;jettySize=auto;html=1;exitX=0.5;exitY=1;exitDx=0;exitDy=0;" edge="1" parent="1" source="fzBJJGRwk2IUik0zCbTJ-31" target="fzBJJGRwk2IUik0zCbTJ-31">
          <mxGeometry relative="1" as="geometry" />
        </mxCell>
        <mxCell id="fzBJJGRwk2IUik0zCbTJ-33" value="" style="endArrow=none;html=1;rounded=0;" edge="1" parent="1" target="fzBJJGRwk2IUik0zCbTJ-31">
          <mxGeometry width="50" height="50" relative="1" as="geometry">
            <mxPoint x="700" y="2090" as="sourcePoint" />
            <mxPoint x="700" y="2030" as="targetPoint" />
          </mxGeometry>
        </mxCell>
        <mxCell id="fzBJJGRwk2IUik0zCbTJ-31" value="ships" style="rhombus;whiteSpace=wrap;html=1;" vertex="1" parent="1">
          <mxGeometry x="660" y="2070" width="80" height="50" as="geometry" />
        </mxCell>
        <mxCell id="fzBJJGRwk2IUik0zCbTJ-34" value="" style="endArrow=none;html=1;rounded=0;exitX=0.5;exitY=0;exitDx=0;exitDy=0;entryX=0.5;entryY=1;entryDx=0;entryDy=0;" edge="1" parent="1" source="fzBJJGRwk2IUik0zCbTJ-29" target="fzBJJGRwk2IUik0zCbTJ-39">
          <mxGeometry width="50" height="50" relative="1" as="geometry">
            <mxPoint x="700" y="1890" as="sourcePoint" />
            <mxPoint x="700" y="1780" as="targetPoint" />
          </mxGeometry>
        </mxCell>
        <mxCell id="fzBJJGRwk2IUik0zCbTJ-35" value="" style="endArrow=none;html=1;rounded=0;exitX=1;exitY=0.5;exitDx=0;exitDy=0;" edge="1" parent="1" source="fzBJJGRwk2IUik0zCbTJ-30">
          <mxGeometry width="50" height="50" relative="1" as="geometry">
            <mxPoint x="930" y="2032.5" as="sourcePoint" />
            <mxPoint x="950" y="2005" as="targetPoint" />
          </mxGeometry>
        </mxCell>
        <mxCell id="fzBJJGRwk2IUik0zCbTJ-36" value="" style="endArrow=none;html=1;rounded=0;exitX=0.5;exitY=1;exitDx=0;exitDy=0;" edge="1" parent="1" source="fzBJJGRwk2IUik0zCbTJ-31">
          <mxGeometry width="50" height="50" relative="1" as="geometry">
            <mxPoint x="770" y="2160" as="sourcePoint" />
            <mxPoint x="700" y="2160" as="targetPoint" />
            <Array as="points">
              <mxPoint x="700" y="2160" />
              <mxPoint x="700" y="2170" />
            </Array>
          </mxGeometry>
        </mxCell>
        <mxCell id="fzBJJGRwk2IUik0zCbTJ-37" value="Delivery" style="rounded=0;whiteSpace=wrap;html=1;" vertex="1" parent="1">
          <mxGeometry x="640" y="2170" width="120" height="40" as="geometry" />
        </mxCell>
        <mxCell id="fzBJJGRwk2IUik0zCbTJ-38" value="Payment" style="rounded=0;whiteSpace=wrap;html=1;" vertex="1" parent="1">
          <mxGeometry x="950" y="1982.5" width="120" height="47.5" as="geometry" />
        </mxCell>
        <mxCell id="fzBJJGRwk2IUik0zCbTJ-39" value="Product" style="rounded=0;whiteSpace=wrap;html=1;" vertex="1" parent="1">
          <mxGeometry x="640" y="1680" width="120" height="40" as="geometry" />
        </mxCell>
        <mxCell id="fzBJJGRwk2IUik0zCbTJ-41" value="" style="endArrow=none;html=1;rounded=0;entryX=0;entryY=0.5;entryDx=0;entryDy=0;" edge="1" parent="1" target="fzBJJGRwk2IUik0zCbTJ-39">
          <mxGeometry width="50" height="50" relative="1" as="geometry">
            <mxPoint x="580" y="1700" as="sourcePoint" />
            <mxPoint x="570" y="1650" as="targetPoint" />
          </mxGeometry>
        </mxCell>
        <mxCell id="fzBJJGRwk2IUik0zCbTJ-42" value="" style="endArrow=none;html=1;rounded=0;exitX=0.5;exitY=0;exitDx=0;exitDy=0;" edge="1" parent="1" source="fzBJJGRwk2IUik0zCbTJ-39">
          <mxGeometry width="50" height="50" relative="1" as="geometry">
            <mxPoint x="710" y="1660" as="sourcePoint" />
            <mxPoint x="700" y="1630" as="targetPoint" />
            <Array as="points" />
          </mxGeometry>
        </mxCell>
        <mxCell id="fzBJJGRwk2IUik0zCbTJ-43" value="made" style="rhombus;whiteSpace=wrap;html=1;" vertex="1" parent="1">
          <mxGeometry x="660" y="1580" width="80" height="50" as="geometry" />
        </mxCell>
        <mxCell id="fzBJJGRwk2IUik0zCbTJ-44" value="stored" style="rhombus;whiteSpace=wrap;html=1;" vertex="1" parent="1">
          <mxGeometry x="500" y="1675" width="80" height="50" as="geometry" />
        </mxCell>
        <mxCell id="fzBJJGRwk2IUik0zCbTJ-45" value="" style="endArrow=none;html=1;rounded=0;" edge="1" parent="1">
          <mxGeometry width="50" height="50" relative="1" as="geometry">
            <mxPoint x="440" y="1700" as="sourcePoint" />
            <mxPoint x="500" y="1700" as="targetPoint" />
          </mxGeometry>
        </mxCell>
        <mxCell id="fzBJJGRwk2IUik0zCbTJ-46" value="Warehouse" style="rounded=0;whiteSpace=wrap;html=1;" vertex="1" parent="1">
          <mxGeometry x="330" y="1680" width="110" height="40" as="geometry" />
        </mxCell>
        <mxCell id="fzBJJGRwk2IUik0zCbTJ-47" value="" style="endArrow=none;html=1;rounded=0;exitX=0.5;exitY=0;exitDx=0;exitDy=0;" edge="1" parent="1" source="fzBJJGRwk2IUik0zCbTJ-43">
          <mxGeometry width="50" height="50" relative="1" as="geometry">
            <mxPoint x="700" y="1570" as="sourcePoint" />
            <mxPoint x="700" y="1540" as="targetPoint" />
          </mxGeometry>
        </mxCell>
        <mxCell id="fzBJJGRwk2IUik0zCbTJ-48" value="Material" style="rounded=0;whiteSpace=wrap;html=1;" vertex="1" parent="1">
          <mxGeometry x="640" y="1500" width="120" height="40" as="geometry" />
        </mxCell>
        <mxCell id="fzBJJGRwk2IUik0zCbTJ-49" value="" style="endArrow=none;html=1;rounded=0;exitX=0.417;exitY=0.025;exitDx=0;exitDy=0;exitPerimeter=0;" edge="1" parent="1" source="fzBJJGRwk2IUik0zCbTJ-48">
          <mxGeometry width="50" height="50" relative="1" as="geometry">
            <mxPoint x="690" y="1490" as="sourcePoint" />
            <mxPoint x="690" y="1450" as="targetPoint" />
          </mxGeometry>
        </mxCell>
        <mxCell id="fzBJJGRwk2IUik0zCbTJ-50" value="" style="endArrow=none;html=1;rounded=0;entryX=0;entryY=0.5;entryDx=0;entryDy=0;" edge="1" parent="1" target="fzBJJGRwk2IUik0zCbTJ-48">
          <mxGeometry width="50" height="50" relative="1" as="geometry">
            <mxPoint x="570" y="1520" as="sourcePoint" />
            <mxPoint x="590" y="1510" as="targetPoint" />
            <Array as="points" />
          </mxGeometry>
        </mxCell>
        <mxCell id="fzBJJGRwk2IUik0zCbTJ-51" value="" style="endArrow=none;html=1;rounded=0;exitX=1;exitY=0.5;exitDx=0;exitDy=0;" edge="1" parent="1" source="fzBJJGRwk2IUik0zCbTJ-48">
          <mxGeometry width="50" height="50" relative="1" as="geometry">
            <mxPoint x="815" y="1520" as="sourcePoint" />
            <mxPoint x="820" y="1520" as="targetPoint" />
          </mxGeometry>
        </mxCell>
        <mxCell id="fzBJJGRwk2IUik0zCbTJ-52" value="use" style="rhombus;whiteSpace=wrap;html=1;" vertex="1" parent="1">
          <mxGeometry x="650" y="1390" width="80" height="60" as="geometry" />
        </mxCell>
        <mxCell id="fzBJJGRwk2IUik0zCbTJ-53" value="supplied" style="rhombus;whiteSpace=wrap;html=1;" vertex="1" parent="1">
          <mxGeometry x="820" y="1490" width="80" height="60" as="geometry" />
        </mxCell>
        <mxCell id="fzBJJGRwk2IUik0zCbTJ-55" value="" style="endArrow=none;html=1;rounded=0;" edge="1" parent="1">
          <mxGeometry width="50" height="50" relative="1" as="geometry">
            <mxPoint x="440" y="1520" as="sourcePoint" />
            <mxPoint x="500" y="1520" as="targetPoint" />
            <Array as="points">
              <mxPoint x="440" y="1520" />
            </Array>
          </mxGeometry>
        </mxCell>
        <mxCell id="fzBJJGRwk2IUik0zCbTJ-56" value="" style="endArrow=none;html=1;rounded=0;" edge="1" parent="1">
          <mxGeometry width="50" height="50" relative="1" as="geometry">
            <mxPoint x="900" y="1520" as="sourcePoint" />
            <mxPoint x="950" y="1520" as="targetPoint" />
          </mxGeometry>
        </mxCell>
        <mxCell id="fzBJJGRwk2IUik0zCbTJ-57" value="" style="endArrow=none;html=1;rounded=0;exitX=0.5;exitY=0;exitDx=0;exitDy=0;" edge="1" parent="1" source="fzBJJGRwk2IUik0zCbTJ-52">
          <mxGeometry width="50" height="50" relative="1" as="geometry">
            <mxPoint x="690" y="1380" as="sourcePoint" />
            <mxPoint x="690" y="1320" as="targetPoint" />
          </mxGeometry>
        </mxCell>
        <mxCell id="fzBJJGRwk2IUik0zCbTJ-58" value="Production" style="rounded=0;whiteSpace=wrap;html=1;" vertex="1" parent="1">
          <mxGeometry x="630" y="1280" width="120" height="40" as="geometry" />
        </mxCell>
        <mxCell id="fzBJJGRwk2IUik0zCbTJ-59" value="Supplier" style="rounded=0;whiteSpace=wrap;html=1;" vertex="1" parent="1">
          <mxGeometry x="950" y="1500" width="120" height="40" as="geometry" />
        </mxCell>
        <mxCell id="fzBJJGRwk2IUik0zCbTJ-60" value="Inventory" style="rounded=0;whiteSpace=wrap;html=1;" vertex="1" parent="1">
          <mxGeometry x="320" y="1500" width="120" height="40" as="geometry" />
        </mxCell>
        <mxCell id="fzBJJGRwk2IUik0zCbTJ-61" value="" style="endArrow=none;html=1;rounded=0;" edge="1" parent="1">
          <mxGeometry width="50" height="50" relative="1" as="geometry">
            <mxPoint x="750" y="1299.5" as="sourcePoint" />
            <mxPoint x="810" y="1299.5" as="targetPoint" />
            <Array as="points">
              <mxPoint x="810" y="1299.5" />
            </Array>
          </mxGeometry>
        </mxCell>
        <mxCell id="fzBJJGRwk2IUik0zCbTJ-62" value="undergoes" style="rhombus;whiteSpace=wrap;html=1;" vertex="1" parent="1">
          <mxGeometry x="810" y="1270" width="80" height="60" as="geometry" />
        </mxCell>
        <mxCell id="fzBJJGRwk2IUik0zCbTJ-63" value="" style="endArrow=none;html=1;rounded=0;exitX=1;exitY=0.5;exitDx=0;exitDy=0;" edge="1" parent="1" source="fzBJJGRwk2IUik0zCbTJ-62">
          <mxGeometry width="50" height="50" relative="1" as="geometry">
            <mxPoint x="1020" y="1360" as="sourcePoint" />
            <mxPoint x="960" y="1300" as="targetPoint" />
          </mxGeometry>
        </mxCell>
        <mxCell id="fzBJJGRwk2IUik0zCbTJ-64" value="Quickcheck" style="rounded=0;whiteSpace=wrap;html=1;" vertex="1" parent="1">
          <mxGeometry x="950" y="1280" width="120" height="40" as="geometry" />
        </mxCell>
        <mxCell id="fzBJJGRwk2IUik0zCbTJ-71" value="1" style="text;html=1;align=center;verticalAlign=middle;resizable=0;points=[];autosize=1;strokeColor=none;fillColor=none;" vertex="1" parent="1">
          <mxGeometry x="155" y="1775.5" width="30" height="30" as="geometry" />
        </mxCell>
        <mxCell id="fzBJJGRwk2IUik0zCbTJ-72" value="M" style="text;html=1;align=center;verticalAlign=middle;resizable=0;points=[];autosize=1;strokeColor=none;fillColor=none;" vertex="1" parent="1">
          <mxGeometry x="290" y="1775.5" width="30" height="30" as="geometry" />
        </mxCell>
        <mxCell id="fzBJJGRwk2IUik0zCbTJ-73" value="1" style="text;html=1;align=center;verticalAlign=middle;resizable=0;points=[];autosize=1;strokeColor=none;fillColor=none;" vertex="1" parent="1">
          <mxGeometry x="435" y="1968" width="30" height="30" as="geometry" />
        </mxCell>
        <mxCell id="fzBJJGRwk2IUik0zCbTJ-74" value="M" style="text;html=1;align=center;verticalAlign=middle;resizable=0;points=[];autosize=1;strokeColor=none;fillColor=none;" vertex="1" parent="1">
          <mxGeometry x="615" y="1968" width="30" height="30" as="geometry" />
        </mxCell>
        <mxCell id="fzBJJGRwk2IUik0zCbTJ-75" value="1" style="text;html=1;align=center;verticalAlign=middle;resizable=0;points=[];autosize=1;strokeColor=none;fillColor=none;" vertex="1" parent="1">
          <mxGeometry x="755" y="1968" width="30" height="30" as="geometry" />
        </mxCell>
        <mxCell id="fzBJJGRwk2IUik0zCbTJ-76" value="M" style="text;html=1;align=center;verticalAlign=middle;resizable=0;points=[];autosize=1;strokeColor=none;fillColor=none;" vertex="1" parent="1">
          <mxGeometry x="925" y="1968" width="30" height="30" as="geometry" />
        </mxCell>
        <mxCell id="fzBJJGRwk2IUik0zCbTJ-77" value="M" style="text;html=1;align=center;verticalAlign=middle;resizable=0;points=[];autosize=1;strokeColor=none;fillColor=none;" vertex="1" parent="1">
          <mxGeometry x="695" y="1958" width="30" height="30" as="geometry" />
        </mxCell>
        <mxCell id="fzBJJGRwk2IUik0zCbTJ-78" value="N" style="text;html=1;align=center;verticalAlign=middle;resizable=0;points=[];autosize=1;strokeColor=none;fillColor=none;" vertex="1" parent="1">
          <mxGeometry x="695" y="1718" width="30" height="30" as="geometry" />
        </mxCell>
        <mxCell id="fzBJJGRwk2IUik0zCbTJ-79" value="1" style="text;html=1;align=center;verticalAlign=middle;resizable=0;points=[];autosize=1;strokeColor=none;fillColor=none;" vertex="1" parent="1">
          <mxGeometry x="925" y="1488" width="30" height="30" as="geometry" />
        </mxCell>
        <mxCell id="fzBJJGRwk2IUik0zCbTJ-80" value="M" style="text;html=1;align=center;verticalAlign=middle;resizable=0;points=[];autosize=1;strokeColor=none;fillColor=none;" vertex="1" parent="1">
          <mxGeometry x="755" y="1488" width="30" height="30" as="geometry" />
        </mxCell>
        <mxCell id="fzBJJGRwk2IUik0zCbTJ-81" value="1" style="text;html=1;align=center;verticalAlign=middle;resizable=0;points=[];autosize=1;strokeColor=none;fillColor=none;" vertex="1" parent="1">
          <mxGeometry x="915" y="1268" width="30" height="30" as="geometry" />
        </mxCell>
        <mxCell id="fzBJJGRwk2IUik0zCbTJ-82" value="M" style="text;html=1;align=center;verticalAlign=middle;resizable=0;points=[];autosize=1;strokeColor=none;fillColor=none;" vertex="1" parent="1">
          <mxGeometry x="745" y="1268" width="30" height="30" as="geometry" />
        </mxCell>
        <mxCell id="fzBJJGRwk2IUik0zCbTJ-83" value="1" style="text;html=1;align=center;verticalAlign=middle;resizable=0;points=[];autosize=1;strokeColor=none;fillColor=none;" vertex="1" parent="1">
          <mxGeometry x="435" y="1668" width="30" height="30" as="geometry" />
        </mxCell>
        <mxCell id="fzBJJGRwk2IUik0zCbTJ-84" value="M" style="text;html=1;align=center;verticalAlign=middle;resizable=0;points=[];autosize=1;strokeColor=none;fillColor=none;" vertex="1" parent="1">
          <mxGeometry x="615" y="1668" width="30" height="30" as="geometry" />
        </mxCell>
        <mxCell id="fzBJJGRwk2IUik0zCbTJ-89" value="1" style="text;html=1;align=center;verticalAlign=middle;resizable=0;points=[];autosize=1;strokeColor=none;fillColor=none;" vertex="1" parent="1">
          <mxGeometry x="375" y="2028" width="30" height="30" as="geometry" />
        </mxCell>
        <mxCell id="fzBJJGRwk2IUik0zCbTJ-90" value="M" style="text;html=1;align=center;verticalAlign=middle;resizable=0;points=[];autosize=1;strokeColor=none;fillColor=none;" vertex="1" parent="1">
          <mxGeometry x="385" y="2138" width="30" height="30" as="geometry" />
        </mxCell>
        <mxCell id="fzBJJGRwk2IUik0zCbTJ-93" value="N" style="text;html=1;align=center;verticalAlign=middle;resizable=0;points=[];autosize=1;strokeColor=none;fillColor=none;" vertex="1" parent="1">
          <mxGeometry x="695" y="2138" width="30" height="30" as="geometry" />
        </mxCell>
        <mxCell id="fzBJJGRwk2IUik0zCbTJ-94" value="M" style="text;html=1;align=center;verticalAlign=middle;resizable=0;points=[];autosize=1;strokeColor=none;fillColor=none;" vertex="1" parent="1">
          <mxGeometry x="695" y="2028" width="30" height="30" as="geometry" />
        </mxCell>
        <mxCell id="fzBJJGRwk2IUik0zCbTJ-95" value="M" style="text;html=1;align=center;verticalAlign=middle;resizable=0;points=[];autosize=1;strokeColor=none;fillColor=none;" vertex="1" parent="1">
          <mxGeometry x="615" y="1488" width="30" height="30" as="geometry" />
        </mxCell>
        <mxCell id="fzBJJGRwk2IUik0zCbTJ-96" value="N" style="text;html=1;align=center;verticalAlign=middle;resizable=0;points=[];autosize=1;strokeColor=none;fillColor=none;" vertex="1" parent="1">
          <mxGeometry x="435" y="1488" width="30" height="30" as="geometry" />
        </mxCell>
        <mxCell id="fzBJJGRwk2IUik0zCbTJ-98" value="1" style="text;html=1;align=center;verticalAlign=middle;resizable=0;points=[];autosize=1;strokeColor=none;fillColor=none;" vertex="1" parent="1">
          <mxGeometry x="685" y="1318" width="30" height="30" as="geometry" />
        </mxCell>
        <mxCell id="fzBJJGRwk2IUik0zCbTJ-99" value="M" style="text;html=1;align=center;verticalAlign=middle;resizable=0;points=[];autosize=1;strokeColor=none;fillColor=none;" vertex="1" parent="1">
          <mxGeometry x="685" y="1468" width="30" height="30" as="geometry" />
        </mxCell>
        <mxCell id="fzBJJGRwk2IUik0zCbTJ-100" value="1" style="text;html=1;align=center;verticalAlign=middle;resizable=0;points=[];autosize=1;strokeColor=none;fillColor=none;" vertex="1" parent="1">
          <mxGeometry x="370" y="1830" width="30" height="30" as="geometry" />
        </mxCell>
        <mxCell id="fzBJJGRwk2IUik0zCbTJ-101" value="M" style="text;html=1;align=center;verticalAlign=middle;resizable=0;points=[];autosize=1;strokeColor=none;fillColor=none;" vertex="1" parent="1">
          <mxGeometry x="385" y="1948" width="30" height="30" as="geometry" />
        </mxCell>
        <mxCell id="fzBJJGRwk2IUik0zCbTJ-102" value="1" style="text;html=1;align=center;verticalAlign=middle;resizable=0;points=[];autosize=1;strokeColor=none;fillColor=none;" vertex="1" parent="1">
          <mxGeometry x="695" y="1538" width="30" height="30" as="geometry" />
        </mxCell>
        <mxCell id="fzBJJGRwk2IUik0zCbTJ-103" value="1" style="text;html=1;align=center;verticalAlign=middle;resizable=0;points=[];autosize=1;strokeColor=none;fillColor=none;" vertex="1" parent="1">
          <mxGeometry x="695" y="1648" width="30" height="30" as="geometry" />
        </mxCell>
        <mxCell id="fzBJJGRwk2IUik0zCbTJ-109" value="" style="swimlane;startSize=0;" vertex="1" parent="1">
          <mxGeometry x="500" y="1490" width="80" height="60" as="geometry" />
        </mxCell>
        <mxCell id="fzBJJGRwk2IUik0zCbTJ-54" value="stored" style="rhombus;whiteSpace=wrap;html=1;" vertex="1" parent="fzBJJGRwk2IUik0zCbTJ-109">
          <mxGeometry width="80" height="60" as="geometry" />
        </mxCell>
        <mxCell id="fzBJJGRwk2IUik0zCbTJ-113" value="" style="swimlane;startSize=0;" vertex="1" parent="1">
          <mxGeometry x="660" y="1820" width="80" height="50" as="geometry" />
        </mxCell>
        <mxCell id="fzBJJGRwk2IUik0zCbTJ-114" value="" style="swimlane;startSize=0;" vertex="1" parent="1">
          <mxGeometry x="660" y="2070" width="80" height="50" as="geometry" />
        </mxCell>
        <mxCell id="fzBJJGRwk2IUik0zCbTJ-121" value="" style="endArrow=none;html=1;rounded=0;" edge="1" parent="1">
          <mxGeometry width="50" height="50" relative="1" as="geometry">
            <mxPoint x="270" y="1800" as="sourcePoint" />
            <mxPoint x="320" y="1800" as="targetPoint" />
          </mxGeometry>
        </mxCell>
        <mxCell id="fzBJJGRwk2IUik0zCbTJ-123" value="" style="endArrow=none;html=1;rounded=0;exitX=1;exitY=0.75;exitDx=0;exitDy=0;" edge="1" parent="1" source="fzBJJGRwk2IUik0zCbTJ-58">
          <mxGeometry width="50" height="50" relative="1" as="geometry">
            <mxPoint x="760" y="1370" as="sourcePoint" />
            <mxPoint x="820" y="1310" as="targetPoint" />
          </mxGeometry>
        </mxCell>
        <mxCell id="fzBJJGRwk2IUik0zCbTJ-124" value="" style="endArrow=none;html=1;rounded=0;" edge="1" parent="1">
          <mxGeometry width="50" height="50" relative="1" as="geometry">
            <mxPoint x="880" y="1310" as="sourcePoint" />
            <mxPoint x="950" y="1310" as="targetPoint" />
          </mxGeometry>
        </mxCell>
        <mxCell id="fzBJJGRwk2IUik0zCbTJ-125" value="" style="endArrow=none;html=1;rounded=0;exitX=0.325;exitY=0.025;exitDx=0;exitDy=0;exitPerimeter=0;" edge="1" parent="1" source="fzBJJGRwk2IUik0zCbTJ-48">
          <mxGeometry width="50" height="50" relative="1" as="geometry">
            <mxPoint x="630" y="1490" as="sourcePoint" />
            <mxPoint x="680" y="1440" as="targetPoint" />
          </mxGeometry>
        </mxCell>
        <mxCell id="fzBJJGRwk2IUik0zCbTJ-126" value="" style="endArrow=none;html=1;rounded=0;exitX=0.375;exitY=0.117;exitDx=0;exitDy=0;exitPerimeter=0;" edge="1" parent="1" source="fzBJJGRwk2IUik0zCbTJ-52">
          <mxGeometry width="50" height="50" relative="1" as="geometry">
            <mxPoint x="630" y="1370" as="sourcePoint" />
            <mxPoint x="680" y="1320" as="targetPoint" />
          </mxGeometry>
        </mxCell>
        <mxCell id="fzBJJGRwk2IUik0zCbTJ-127" value="" style="endArrow=none;html=1;rounded=0;exitX=1;exitY=0.75;exitDx=0;exitDy=0;" edge="1" parent="1" source="fzBJJGRwk2IUik0zCbTJ-48">
          <mxGeometry width="50" height="50" relative="1" as="geometry">
            <mxPoint x="780" y="1580" as="sourcePoint" />
            <mxPoint x="830" y="1530" as="targetPoint" />
          </mxGeometry>
        </mxCell>
        <mxCell id="fzBJJGRwk2IUik0zCbTJ-128" value="" style="endArrow=none;html=1;rounded=0;exitX=1;exitY=0.75;exitDx=0;exitDy=0;" edge="1" parent="1" source="fzBJJGRwk2IUik0zCbTJ-60">
          <mxGeometry width="50" height="50" relative="1" as="geometry">
            <mxPoint x="450" y="1580" as="sourcePoint" />
            <mxPoint x="500" y="1530" as="targetPoint" />
          </mxGeometry>
        </mxCell>
        <mxCell id="fzBJJGRwk2IUik0zCbTJ-129" value="" style="endArrow=none;html=1;rounded=0;" edge="1" parent="1">
          <mxGeometry width="50" height="50" relative="1" as="geometry">
            <mxPoint x="582" y="1530" as="sourcePoint" />
            <mxPoint x="640" y="1530" as="targetPoint" />
          </mxGeometry>
        </mxCell>
        <mxCell id="fzBJJGRwk2IUik0zCbTJ-130" value="" style="endArrow=none;html=1;rounded=0;exitX=1;exitY=1;exitDx=0;exitDy=0;" edge="1" parent="1" source="fzBJJGRwk2IUik0zCbTJ-44">
          <mxGeometry width="50" height="50" relative="1" as="geometry">
            <mxPoint x="590" y="1760" as="sourcePoint" />
            <mxPoint x="640" y="1710" as="targetPoint" />
          </mxGeometry>
        </mxCell>
        <mxCell id="fzBJJGRwk2IUik0zCbTJ-131" value="" style="endArrow=none;html=1;rounded=0;exitX=1;exitY=0.75;exitDx=0;exitDy=0;" edge="1" parent="1" source="fzBJJGRwk2IUik0zCbTJ-2">
          <mxGeometry width="50" height="50" relative="1" as="geometry">
            <mxPoint x="150" y="1860" as="sourcePoint" />
            <mxPoint x="200" y="1812" as="targetPoint" />
          </mxGeometry>
        </mxCell>
        <mxCell id="fzBJJGRwk2IUik0zCbTJ-132" value="" style="endArrow=none;html=1;rounded=0;exitX=0.85;exitY=0.679;exitDx=0;exitDy=0;exitPerimeter=0;" edge="1" parent="1" source="fzBJJGRwk2IUik0zCbTJ-5">
          <mxGeometry width="50" height="50" relative="1" as="geometry">
            <mxPoint x="270" y="1860" as="sourcePoint" />
            <mxPoint x="320" y="1810" as="targetPoint" />
          </mxGeometry>
        </mxCell>
        <mxCell id="fzBJJGRwk2IUik0zCbTJ-133" value="" style="endArrow=none;html=1;rounded=0;exitX=0.375;exitY=0.117;exitDx=0;exitDy=0;exitPerimeter=0;" edge="1" parent="1" source="fzBJJGRwk2IUik0zCbTJ-9">
          <mxGeometry width="50" height="50" relative="1" as="geometry">
            <mxPoint x="320" y="1880" as="sourcePoint" />
            <mxPoint x="370" y="1830" as="targetPoint" />
          </mxGeometry>
        </mxCell>
        <mxCell id="fzBJJGRwk2IUik0zCbTJ-134" value="" style="endArrow=none;html=1;rounded=0;exitX=0.375;exitY=0.2;exitDx=0;exitDy=0;exitPerimeter=0;" edge="1" parent="1" source="fzBJJGRwk2IUik0zCbTJ-14">
          <mxGeometry width="50" height="50" relative="1" as="geometry">
            <mxPoint x="320" y="2080" as="sourcePoint" />
            <mxPoint x="370" y="2030" as="targetPoint" />
          </mxGeometry>
        </mxCell>
        <mxCell id="fzBJJGRwk2IUik0zCbTJ-135" value="" style="endArrow=none;html=1;rounded=0;exitX=1;exitY=0.75;exitDx=0;exitDy=0;entryX=0;entryY=1;entryDx=0;entryDy=0;" edge="1" parent="1" source="fzBJJGRwk2IUik0zCbTJ-11" target="fzBJJGRwk2IUik0zCbTJ-23">
          <mxGeometry width="50" height="50" relative="1" as="geometry">
            <mxPoint x="460" y="2060" as="sourcePoint" />
            <mxPoint x="510" y="2010" as="targetPoint" />
          </mxGeometry>
        </mxCell>
        <mxCell id="fzBJJGRwk2IUik0zCbTJ-136" value="" style="endArrow=none;html=1;rounded=0;exitX=1;exitY=1;exitDx=0;exitDy=0;entryX=0;entryY=0.75;entryDx=0;entryDy=0;" edge="1" parent="1" source="fzBJJGRwk2IUik0zCbTJ-23" target="fzBJJGRwk2IUik0zCbTJ-25">
          <mxGeometry width="50" height="50" relative="1" as="geometry">
            <mxPoint x="590" y="2060" as="sourcePoint" />
            <mxPoint x="640" y="2010" as="targetPoint" />
          </mxGeometry>
        </mxCell>
        <mxCell id="fzBJJGRwk2IUik0zCbTJ-137" value="" style="endArrow=none;html=1;rounded=0;exitX=1;exitY=0.75;exitDx=0;exitDy=0;entryX=0.15;entryY=0.664;entryDx=0;entryDy=0;entryPerimeter=0;" edge="1" parent="1" source="fzBJJGRwk2IUik0zCbTJ-25" target="fzBJJGRwk2IUik0zCbTJ-30">
          <mxGeometry width="50" height="50" relative="1" as="geometry">
            <mxPoint x="770" y="2060" as="sourcePoint" />
            <mxPoint x="800" y="2016" as="targetPoint" />
          </mxGeometry>
        </mxCell>
        <mxCell id="fzBJJGRwk2IUik0zCbTJ-138" value="" style="endArrow=none;html=1;rounded=0;exitX=1;exitY=1;exitDx=0;exitDy=0;entryX=0;entryY=0.75;entryDx=0;entryDy=0;" edge="1" parent="1" source="fzBJJGRwk2IUik0zCbTJ-30" target="fzBJJGRwk2IUik0zCbTJ-38">
          <mxGeometry width="50" height="50" relative="1" as="geometry">
            <mxPoint x="890" y="2020" as="sourcePoint" />
            <mxPoint x="950" y="2010" as="targetPoint" />
          </mxGeometry>
        </mxCell>
        <mxCell id="fzBJJGRwk2IUik0zCbTJ-139" value="" style="endArrow=none;html=1;rounded=0;exitX=0.363;exitY=0.06;exitDx=0;exitDy=0;exitPerimeter=0;" edge="1" parent="1" source="fzBJJGRwk2IUik0zCbTJ-114">
          <mxGeometry width="50" height="50" relative="1" as="geometry">
            <mxPoint x="640" y="2080" as="sourcePoint" />
            <mxPoint x="690" y="2030" as="targetPoint" />
          </mxGeometry>
        </mxCell>
        <mxCell id="fzBJJGRwk2IUik0zCbTJ-140" value="" style="endArrow=none;html=1;rounded=0;exitX=0.425;exitY=0.075;exitDx=0;exitDy=0;exitPerimeter=0;" edge="1" parent="1" source="fzBJJGRwk2IUik0zCbTJ-39">
          <mxGeometry width="50" height="50" relative="1" as="geometry">
            <mxPoint x="640" y="1680" as="sourcePoint" />
            <mxPoint x="690" y="1630" as="targetPoint" />
            <Array as="points">
              <mxPoint x="690" y="1630" />
              <mxPoint x="690" y="1620" />
            </Array>
          </mxGeometry>
        </mxCell>
        <mxCell id="fzBJJGRwk2IUik0zCbTJ-141" value="" style="endArrow=none;html=1;rounded=0;" edge="1" parent="1">
          <mxGeometry width="50" height="50" relative="1" as="geometry">
            <mxPoint x="690" y="1980" as="sourcePoint" />
            <mxPoint x="690" y="1870" as="targetPoint" />
          </mxGeometry>
        </mxCell>
        <mxCell id="fzBJJGRwk2IUik0zCbTJ-142" value="production_id" style="ellipse;whiteSpace=wrap;html=1;" vertex="1" parent="1">
          <mxGeometry x="540" y="1220" width="90" height="40" as="geometry" />
        </mxCell>
        <mxCell id="fzBJJGRwk2IUik0zCbTJ-143" value="date" style="ellipse;whiteSpace=wrap;html=1;" vertex="1" parent="1">
          <mxGeometry x="635" y="1180" width="80" height="30" as="geometry" />
        </mxCell>
        <mxCell id="fzBJJGRwk2IUik0zCbTJ-144" value="status" style="ellipse;whiteSpace=wrap;html=1;" vertex="1" parent="1">
          <mxGeometry x="500" y="1285" width="80" height="30" as="geometry" />
        </mxCell>
        <mxCell id="fzBJJGRwk2IUik0zCbTJ-145" value="quantity" style="ellipse;whiteSpace=wrap;html=1;" vertex="1" parent="1">
          <mxGeometry x="730" y="1210" width="50" height="40" as="geometry" />
        </mxCell>
        <mxCell id="fzBJJGRwk2IUik0zCbTJ-147" value="" style="endArrow=none;html=1;rounded=0;exitX=0.083;exitY=0.625;exitDx=0;exitDy=0;exitPerimeter=0;entryX=0.833;entryY=0.625;entryDx=0;entryDy=0;entryPerimeter=0;" edge="1" parent="1" source="fzBJJGRwk2IUik0zCbTJ-142" target="fzBJJGRwk2IUik0zCbTJ-142">
          <mxGeometry width="50" height="50" relative="1" as="geometry">
            <mxPoint x="600" y="1220" as="sourcePoint" />
            <mxPoint x="660" y="1170" as="targetPoint" />
          </mxGeometry>
        </mxCell>
        <mxCell id="fzBJJGRwk2IUik0zCbTJ-148" style="edgeStyle=orthogonalEdgeStyle;rounded=0;orthogonalLoop=1;jettySize=auto;html=1;exitX=0.5;exitY=1;exitDx=0;exitDy=0;" edge="1" parent="1" source="fzBJJGRwk2IUik0zCbTJ-142" target="fzBJJGRwk2IUik0zCbTJ-142">
          <mxGeometry relative="1" as="geometry" />
        </mxCell>
        <mxCell id="fzBJJGRwk2IUik0zCbTJ-149" value="check_id" style="ellipse;whiteSpace=wrap;html=1;" vertex="1" parent="1">
          <mxGeometry x="925" y="1200" width="120" height="30" as="geometry" />
        </mxCell>
        <mxCell id="fzBJJGRwk2IUik0zCbTJ-150" value="inspection_date" style="ellipse;whiteSpace=wrap;html=1;" vertex="1" parent="1">
          <mxGeometry x="1080" y="1340" width="120" height="40" as="geometry" />
        </mxCell>
        <mxCell id="fzBJJGRwk2IUik0zCbTJ-151" value="result" style="ellipse;whiteSpace=wrap;html=1;" vertex="1" parent="1">
          <mxGeometry x="930" y="1370" width="120" height="30" as="geometry" />
        </mxCell>
        <mxCell id="fzBJJGRwk2IUik0zCbTJ-152" value="production_id" style="ellipse;whiteSpace=wrap;html=1;" vertex="1" parent="1">
          <mxGeometry x="1080" y="1235" width="120" height="25" as="geometry" />
        </mxCell>
        <mxCell id="fzBJJGRwk2IUik0zCbTJ-153" value="" style="endArrow=none;html=1;rounded=0;exitX=0.167;exitY=0.625;exitDx=0;exitDy=0;exitPerimeter=0;entryX=0.708;entryY=0.667;entryDx=0;entryDy=0;entryPerimeter=0;" edge="1" parent="1" source="fzBJJGRwk2IUik0zCbTJ-149" target="fzBJJGRwk2IUik0zCbTJ-149">
          <mxGeometry width="50" height="50" relative="1" as="geometry">
            <mxPoint x="1040" y="1280" as="sourcePoint" />
            <mxPoint x="1090" y="1200" as="targetPoint" />
          </mxGeometry>
        </mxCell>
        <mxCell id="fzBJJGRwk2IUik0zCbTJ-154" value="" style="endArrow=none;html=1;rounded=0;exitX=1;exitY=0.5;exitDx=0;exitDy=0;" edge="1" parent="1" source="fzBJJGRwk2IUik0zCbTJ-144">
          <mxGeometry width="50" height="50" relative="1" as="geometry">
            <mxPoint x="580" y="1350" as="sourcePoint" />
            <mxPoint x="630" y="1300" as="targetPoint" />
          </mxGeometry>
        </mxCell>
        <mxCell id="fzBJJGRwk2IUik0zCbTJ-155" value="" style="endArrow=none;html=1;rounded=0;exitX=0.967;exitY=0.825;exitDx=0;exitDy=0;exitPerimeter=0;" edge="1" parent="1" source="fzBJJGRwk2IUik0zCbTJ-142">
          <mxGeometry width="50" height="50" relative="1" as="geometry">
            <mxPoint x="600" y="1330" as="sourcePoint" />
            <mxPoint x="650" y="1280" as="targetPoint" />
          </mxGeometry>
        </mxCell>
        <mxCell id="fzBJJGRwk2IUik0zCbTJ-156" value="" style="endArrow=none;html=1;rounded=0;entryX=0.588;entryY=1.067;entryDx=0;entryDy=0;entryPerimeter=0;" edge="1" parent="1" target="fzBJJGRwk2IUik0zCbTJ-143">
          <mxGeometry width="50" height="50" relative="1" as="geometry">
            <mxPoint x="680" y="1280" as="sourcePoint" />
            <mxPoint x="730" y="1230" as="targetPoint" />
          </mxGeometry>
        </mxCell>
        <mxCell id="fzBJJGRwk2IUik0zCbTJ-157" value="" style="endArrow=none;html=1;rounded=0;" edge="1" parent="1">
          <mxGeometry width="50" height="50" relative="1" as="geometry">
            <mxPoint x="720" y="1280" as="sourcePoint" />
            <mxPoint x="750" y="1250" as="targetPoint" />
          </mxGeometry>
        </mxCell>
        <mxCell id="fzBJJGRwk2IUik0zCbTJ-158" value="" style="endArrow=none;html=1;rounded=0;exitX=0.333;exitY=0.025;exitDx=0;exitDy=0;exitPerimeter=0;" edge="1" parent="1" source="fzBJJGRwk2IUik0zCbTJ-64">
          <mxGeometry width="50" height="50" relative="1" as="geometry">
            <mxPoint x="940" y="1280" as="sourcePoint" />
            <mxPoint x="990" y="1230" as="targetPoint" />
          </mxGeometry>
        </mxCell>
        <mxCell id="fzBJJGRwk2IUik0zCbTJ-159" value="" style="endArrow=none;html=1;rounded=0;exitX=0.75;exitY=0;exitDx=0;exitDy=0;" edge="1" parent="1" source="fzBJJGRwk2IUik0zCbTJ-64">
          <mxGeometry width="50" height="50" relative="1" as="geometry">
            <mxPoint x="1030" y="1300" as="sourcePoint" />
            <mxPoint x="1080" y="1250" as="targetPoint" />
          </mxGeometry>
        </mxCell>
        <mxCell id="fzBJJGRwk2IUik0zCbTJ-160" value="" style="endArrow=none;html=1;rounded=0;" edge="1" parent="1" source="fzBJJGRwk2IUik0zCbTJ-150">
          <mxGeometry width="50" height="50" relative="1" as="geometry">
            <mxPoint x="1020" y="1370" as="sourcePoint" />
            <mxPoint x="1070" y="1320" as="targetPoint" />
          </mxGeometry>
        </mxCell>
        <mxCell id="fzBJJGRwk2IUik0zCbTJ-161" value="" style="endArrow=none;html=1;rounded=0;exitX=0.5;exitY=0;exitDx=0;exitDy=0;" edge="1" parent="1" source="fzBJJGRwk2IUik0zCbTJ-151">
          <mxGeometry width="50" height="50" relative="1" as="geometry">
            <mxPoint x="950" y="1370" as="sourcePoint" />
            <mxPoint x="1000" y="1320" as="targetPoint" />
          </mxGeometry>
        </mxCell>
        <mxCell id="fzBJJGRwk2IUik0zCbTJ-162" value="name" style="ellipse;whiteSpace=wrap;html=1;" vertex="1" parent="1">
          <mxGeometry x="710" y="1448" width="60" height="32" as="geometry" />
        </mxCell>
        <mxCell id="fzBJJGRwk2IUik0zCbTJ-163" value="material_id" style="ellipse;whiteSpace=wrap;html=1;" vertex="1" parent="1">
          <mxGeometry x="580" y="1450" width="80" height="30" as="geometry" />
        </mxCell>
        <mxCell id="fzBJJGRwk2IUik0zCbTJ-164" value="quantity_available" style="ellipse;whiteSpace=wrap;html=1;" vertex="1" parent="1">
          <mxGeometry x="750" y="1570" width="105" height="34" as="geometry" />
        </mxCell>
        <mxCell id="fzBJJGRwk2IUik0zCbTJ-165" value="type" style="ellipse;whiteSpace=wrap;html=1;" vertex="1" parent="1">
          <mxGeometry x="570" y="1572" width="90" height="30" as="geometry" />
        </mxCell>
        <mxCell id="fzBJJGRwk2IUik0zCbTJ-166" value="inventory_id" style="ellipse;whiteSpace=wrap;html=1;" vertex="1" parent="1">
          <mxGeometry x="280" y="1420" width="85" height="40" as="geometry" />
        </mxCell>
        <mxCell id="fzBJJGRwk2IUik0zCbTJ-167" style="edgeStyle=orthogonalEdgeStyle;rounded=0;orthogonalLoop=1;jettySize=auto;html=1;exitX=0.5;exitY=1;exitDx=0;exitDy=0;" edge="1" parent="1" source="fzBJJGRwk2IUik0zCbTJ-162" target="fzBJJGRwk2IUik0zCbTJ-162">
          <mxGeometry relative="1" as="geometry" />
        </mxCell>
        <mxCell id="fzBJJGRwk2IUik0zCbTJ-168" value="" style="endArrow=none;html=1;rounded=0;entryX=0.825;entryY=-0.025;entryDx=0;entryDy=0;entryPerimeter=0;" edge="1" parent="1" target="fzBJJGRwk2IUik0zCbTJ-48">
          <mxGeometry width="50" height="50" relative="1" as="geometry">
            <mxPoint x="740" y="1480" as="sourcePoint" />
            <mxPoint x="798" y="1480" as="targetPoint" />
          </mxGeometry>
        </mxCell>
        <mxCell id="fzBJJGRwk2IUik0zCbTJ-171" value="" style="endArrow=none;html=1;rounded=0;" edge="1" parent="1">
          <mxGeometry width="50" height="50" relative="1" as="geometry">
            <mxPoint x="630" y="1570" as="sourcePoint" />
            <mxPoint x="670" y="1540" as="targetPoint" />
          </mxGeometry>
        </mxCell>
        <mxCell id="fzBJJGRwk2IUik0zCbTJ-172" value="" style="endArrow=none;html=1;rounded=0;" edge="1" parent="1" source="fzBJJGRwk2IUik0zCbTJ-164">
          <mxGeometry width="50" height="50" relative="1" as="geometry">
            <mxPoint x="710" y="1590" as="sourcePoint" />
            <mxPoint x="760" y="1540" as="targetPoint" />
          </mxGeometry>
        </mxCell>
        <mxCell id="fzBJJGRwk2IUik0zCbTJ-173" value="" style="endArrow=none;html=1;rounded=0;" edge="1" parent="1" source="fzBJJGRwk2IUik0zCbTJ-48">
          <mxGeometry width="50" height="50" relative="1" as="geometry">
            <mxPoint x="590" y="1530" as="sourcePoint" />
            <mxPoint x="640" y="1480" as="targetPoint" />
          </mxGeometry>
        </mxCell>
        <mxCell id="fzBJJGRwk2IUik0zCbTJ-174" value="" style="endArrow=none;html=1;rounded=0;exitX=0.125;exitY=0.667;exitDx=0;exitDy=0;exitPerimeter=0;" edge="1" parent="1" source="fzBJJGRwk2IUik0zCbTJ-163">
          <mxGeometry width="50" height="50" relative="1" as="geometry">
            <mxPoint x="600" y="1520" as="sourcePoint" />
            <mxPoint x="650" y="1470" as="targetPoint" />
          </mxGeometry>
        </mxCell>
        <mxCell id="fzBJJGRwk2IUik0zCbTJ-175" value="" style="endArrow=none;html=1;rounded=0;exitX=0.235;exitY=0.75;exitDx=0;exitDy=0;exitPerimeter=0;" edge="1" parent="1" source="fzBJJGRwk2IUik0zCbTJ-166">
          <mxGeometry width="50" height="50" relative="1" as="geometry">
            <mxPoint x="300" y="1500" as="sourcePoint" />
            <mxPoint x="350" y="1450" as="targetPoint" />
          </mxGeometry>
        </mxCell>
        <mxCell id="fzBJJGRwk2IUik0zCbTJ-177" value="material_id" style="ellipse;whiteSpace=wrap;html=1;" vertex="1" parent="1">
          <mxGeometry x="390" y="1425" width="80" height="30" as="geometry" />
        </mxCell>
        <mxCell id="fzBJJGRwk2IUik0zCbTJ-179" value="Stock_Level" style="ellipse;whiteSpace=wrap;html=1;" vertex="1" parent="1">
          <mxGeometry x="170" y="1505" width="120" height="30" as="geometry" />
        </mxCell>
        <mxCell id="fzBJJGRwk2IUik0zCbTJ-180" value="Storage_Location" style="ellipse;whiteSpace=wrap;html=1;" vertex="1" parent="1">
          <mxGeometry x="345" y="1570" width="95" height="36" as="geometry" />
        </mxCell>
        <mxCell id="fzBJJGRwk2IUik0zCbTJ-181" value="Contact_Number" style="ellipse;whiteSpace=wrap;html=1;" vertex="1" parent="1">
          <mxGeometry x="1090" y="1438" width="120" height="42" as="geometry" />
        </mxCell>
        <mxCell id="fzBJJGRwk2IUik0zCbTJ-182" value="Address" style="ellipse;whiteSpace=wrap;html=1;" vertex="1" parent="1">
          <mxGeometry x="945" y="1443" width="120" height="32" as="geometry" />
        </mxCell>
        <mxCell id="fzBJJGRwk2IUik0zCbTJ-183" value="Name" style="ellipse;whiteSpace=wrap;html=1;" vertex="1" parent="1">
          <mxGeometry x="1090" y="1547" width="120" height="33" as="geometry" />
        </mxCell>
        <mxCell id="fzBJJGRwk2IUik0zCbTJ-184" value="Supplier_ID" style="ellipse;whiteSpace=wrap;html=1;" vertex="1" parent="1">
          <mxGeometry x="955" y="1572" width="120" height="30" as="geometry" />
        </mxCell>
        <mxCell id="fzBJJGRwk2IUik0zCbTJ-185" value="&lt;b&gt;warehouse_id&lt;/b&gt;" style="ellipse;whiteSpace=wrap;html=1;" vertex="1" parent="1">
          <mxGeometry x="250" y="1636" width="120" height="32" as="geometry" />
        </mxCell>
        <mxCell id="fzBJJGRwk2IUik0zCbTJ-186" value="location" style="ellipse;whiteSpace=wrap;html=1;" vertex="1" parent="1">
          <mxGeometry x="430" y="1606" width="120" height="32" as="geometry" />
        </mxCell>
        <mxCell id="fzBJJGRwk2IUik0zCbTJ-187" value="capacity" style="ellipse;whiteSpace=wrap;html=1;" vertex="1" parent="1">
          <mxGeometry x="240" y="1713.5" width="65" height="34.5" as="geometry" />
        </mxCell>
        <mxCell id="fzBJJGRwk2IUik0zCbTJ-188" style="edgeStyle=orthogonalEdgeStyle;rounded=0;orthogonalLoop=1;jettySize=auto;html=1;exitX=0.5;exitY=1;exitDx=0;exitDy=0;" edge="1" parent="1" source="fzBJJGRwk2IUik0zCbTJ-184" target="fzBJJGRwk2IUik0zCbTJ-184">
          <mxGeometry relative="1" as="geometry" />
        </mxCell>
        <mxCell id="fzBJJGRwk2IUik0zCbTJ-189" value="" style="endArrow=none;html=1;rounded=0;exitX=0.183;exitY=0.1;exitDx=0;exitDy=0;exitPerimeter=0;" edge="1" parent="1" source="fzBJJGRwk2IUik0zCbTJ-60">
          <mxGeometry width="50" height="50" relative="1" as="geometry">
            <mxPoint x="290" y="1510" as="sourcePoint" />
            <mxPoint x="340" y="1460" as="targetPoint" />
          </mxGeometry>
        </mxCell>
        <mxCell id="fzBJJGRwk2IUik0zCbTJ-190" value="" style="endArrow=none;html=1;rounded=0;" edge="1" parent="1">
          <mxGeometry width="50" height="50" relative="1" as="geometry">
            <mxPoint x="380" y="1500" as="sourcePoint" />
            <mxPoint x="430" y="1450" as="targetPoint" />
          </mxGeometry>
        </mxCell>
        <mxCell id="fzBJJGRwk2IUik0zCbTJ-191" value="" style="endArrow=none;html=1;rounded=0;exitX=0.5;exitY=0;exitDx=0;exitDy=0;" edge="1" parent="1" source="fzBJJGRwk2IUik0zCbTJ-180">
          <mxGeometry width="50" height="50" relative="1" as="geometry">
            <mxPoint x="340" y="1590" as="sourcePoint" />
            <mxPoint x="390" y="1540" as="targetPoint" />
          </mxGeometry>
        </mxCell>
        <mxCell id="fzBJJGRwk2IUik0zCbTJ-192" value="" style="endArrow=none;html=1;rounded=0;exitX=1;exitY=0.5;exitDx=0;exitDy=0;" edge="1" parent="1" source="fzBJJGRwk2IUik0zCbTJ-179">
          <mxGeometry width="50" height="50" relative="1" as="geometry">
            <mxPoint x="270" y="1570" as="sourcePoint" />
            <mxPoint x="320" y="1520" as="targetPoint" />
          </mxGeometry>
        </mxCell>
        <mxCell id="fzBJJGRwk2IUik0zCbTJ-193" value="" style="endArrow=none;html=1;rounded=0;exitX=0.5;exitY=0;exitDx=0;exitDy=0;" edge="1" parent="1" source="fzBJJGRwk2IUik0zCbTJ-184">
          <mxGeometry width="50" height="50" relative="1" as="geometry">
            <mxPoint x="960" y="1590" as="sourcePoint" />
            <mxPoint x="1010" y="1540" as="targetPoint" />
          </mxGeometry>
        </mxCell>
        <mxCell id="fzBJJGRwk2IUik0zCbTJ-194" value="" style="endArrow=none;html=1;rounded=0;" edge="1" parent="1">
          <mxGeometry width="50" height="50" relative="1" as="geometry">
            <mxPoint x="1070" y="1520" as="sourcePoint" />
            <mxPoint x="1120" y="1470" as="targetPoint" />
          </mxGeometry>
        </mxCell>
        <mxCell id="fzBJJGRwk2IUik0zCbTJ-195" value="" style="endArrow=none;html=1;rounded=0;exitX=0.5;exitY=0;exitDx=0;exitDy=0;" edge="1" parent="1" source="fzBJJGRwk2IUik0zCbTJ-59">
          <mxGeometry width="50" height="50" relative="1" as="geometry">
            <mxPoint x="1010" y="1490" as="sourcePoint" />
            <mxPoint x="1020" y="1470" as="targetPoint" />
          </mxGeometry>
        </mxCell>
        <mxCell id="fzBJJGRwk2IUik0zCbTJ-196" value="" style="endArrow=none;html=1;rounded=0;entryX=1;entryY=0.75;entryDx=0;entryDy=0;" edge="1" parent="1" target="fzBJJGRwk2IUik0zCbTJ-59">
          <mxGeometry width="50" height="50" relative="1" as="geometry">
            <mxPoint x="1120" y="1550" as="sourcePoint" />
            <mxPoint x="1170" y="1500" as="targetPoint" />
          </mxGeometry>
        </mxCell>
        <mxCell id="fzBJJGRwk2IUik0zCbTJ-197" value="" style="endArrow=none;html=1;rounded=0;exitX=1;exitY=0;exitDx=0;exitDy=0;" edge="1" parent="1" source="fzBJJGRwk2IUik0zCbTJ-187">
          <mxGeometry width="50" height="50" relative="1" as="geometry">
            <mxPoint x="280" y="1750" as="sourcePoint" />
            <mxPoint x="330" y="1700" as="targetPoint" />
          </mxGeometry>
        </mxCell>
        <mxCell id="fzBJJGRwk2IUik0zCbTJ-198" value="" style="endArrow=none;html=1;rounded=0;entryX=0.636;entryY=0;entryDx=0;entryDy=0;entryPerimeter=0;exitX=0.925;exitY=0.781;exitDx=0;exitDy=0;exitPerimeter=0;" edge="1" parent="1" source="fzBJJGRwk2IUik0zCbTJ-185" target="fzBJJGRwk2IUik0zCbTJ-46">
          <mxGeometry width="50" height="50" relative="1" as="geometry">
            <mxPoint x="370" y="1650" as="sourcePoint" />
            <mxPoint x="420" y="1600" as="targetPoint" />
            <Array as="points" />
          </mxGeometry>
        </mxCell>
        <mxCell id="fzBJJGRwk2IUik0zCbTJ-199" value="" style="endArrow=none;html=1;rounded=0;exitX=0.342;exitY=0.938;exitDx=0;exitDy=0;exitPerimeter=0;entryX=0.882;entryY=-0.05;entryDx=0;entryDy=0;entryPerimeter=0;" edge="1" parent="1" source="fzBJJGRwk2IUik0zCbTJ-186" target="fzBJJGRwk2IUik0zCbTJ-46">
          <mxGeometry width="50" height="50" relative="1" as="geometry">
            <mxPoint x="450" y="1730" as="sourcePoint" />
            <mxPoint x="430" y="1720" as="targetPoint" />
          </mxGeometry>
        </mxCell>
        <mxCell id="fzBJJGRwk2IUik0zCbTJ-200" value="product_id" style="ellipse;whiteSpace=wrap;html=1;" vertex="1" parent="1">
          <mxGeometry x="725" y="1636" width="120" height="32" as="geometry" />
        </mxCell>
        <mxCell id="fzBJJGRwk2IUik0zCbTJ-201" value="category" style="ellipse;whiteSpace=wrap;html=1;" vertex="1" parent="1">
          <mxGeometry x="565" y="1760" width="120" height="40" as="geometry" />
        </mxCell>
        <mxCell id="fzBJJGRwk2IUik0zCbTJ-202" value="price" style="ellipse;whiteSpace=wrap;html=1;" vertex="1" parent="1">
          <mxGeometry x="730" y="1787" width="120" height="27" as="geometry" />
        </mxCell>
        <mxCell id="fzBJJGRwk2IUik0zCbTJ-203" value="name" style="ellipse;whiteSpace=wrap;html=1;" vertex="1" parent="1">
          <mxGeometry x="825" y="1678" width="120" height="32" as="geometry" />
        </mxCell>
        <mxCell id="fzBJJGRwk2IUik0zCbTJ-204" value="warehouse_id" style="ellipse;whiteSpace=wrap;html=1;" vertex="1" parent="1">
          <mxGeometry x="760" y="1736" width="120" height="27" as="geometry" />
        </mxCell>
        <mxCell id="fzBJJGRwk2IUik0zCbTJ-205" value="payment_id" style="ellipse;whiteSpace=wrap;html=1;" vertex="1" parent="1">
          <mxGeometry x="930" y="2060" width="120" height="30" as="geometry" />
        </mxCell>
        <mxCell id="fzBJJGRwk2IUik0zCbTJ-206" value="amount" style="ellipse;whiteSpace=wrap;html=1;" vertex="1" parent="1">
          <mxGeometry x="1080" y="2020" width="120" height="30" as="geometry" />
        </mxCell>
        <mxCell id="fzBJJGRwk2IUik0zCbTJ-207" value="payment_method" style="ellipse;whiteSpace=wrap;html=1;" vertex="1" parent="1">
          <mxGeometry x="1030" y="1920" width="120" height="32" as="geometry" />
        </mxCell>
        <mxCell id="fzBJJGRwk2IUik0zCbTJ-208" value="order_id" style="ellipse;whiteSpace=wrap;html=1;" vertex="1" parent="1">
          <mxGeometry x="900" y="1922" width="120" height="30" as="geometry" />
        </mxCell>
        <mxCell id="fzBJJGRwk2IUik0zCbTJ-209" value="status" style="ellipse;whiteSpace=wrap;html=1;strokeColor=default;align=center;verticalAlign=middle;fontFamily=Helvetica;fontSize=12;fontColor=default;fillColor=default;" vertex="1" parent="1">
          <mxGeometry x="810" y="2220" width="120" height="30" as="geometry" />
        </mxCell>
        <mxCell id="fzBJJGRwk2IUik0zCbTJ-210" value="address" style="ellipse;whiteSpace=wrap;html=1;strokeColor=default;align=center;verticalAlign=middle;fontFamily=Helvetica;fontSize=12;fontColor=default;fillColor=default;" vertex="1" parent="1">
          <mxGeometry x="645" y="2250" width="120" height="30" as="geometry" />
        </mxCell>
        <mxCell id="fzBJJGRwk2IUik0zCbTJ-211" value="order_id" style="ellipse;whiteSpace=wrap;html=1;strokeColor=default;align=center;verticalAlign=middle;fontFamily=Helvetica;fontSize=12;fontColor=default;fillColor=default;" vertex="1" parent="1">
          <mxGeometry x="540" y="2120" width="120" height="30" as="geometry" />
        </mxCell>
        <mxCell id="fzBJJGRwk2IUik0zCbTJ-212" value="delivery_id" style="ellipse;whiteSpace=wrap;html=1;strokeColor=default;align=center;verticalAlign=middle;fontFamily=Helvetica;fontSize=12;fontColor=default;fillColor=default;" vertex="1" parent="1">
          <mxGeometry x="510" y="2230" width="120" height="30" as="geometry" />
        </mxCell>
        <mxCell id="fzBJJGRwk2IUik0zCbTJ-213" value="contact" style="ellipse;whiteSpace=wrap;html=1;strokeColor=default;align=center;verticalAlign=middle;fontFamily=Helvetica;fontSize=12;fontColor=default;fillColor=default;" vertex="1" parent="1">
          <mxGeometry x="140" y="1868" width="80" height="32" as="geometry" />
        </mxCell>
        <mxCell id="fzBJJGRwk2IUik0zCbTJ-214" value="name" style="ellipse;whiteSpace=wrap;html=1;strokeColor=default;align=center;verticalAlign=middle;fontFamily=Helvetica;fontSize=12;fontColor=default;fillColor=default;" vertex="1" parent="1">
          <mxGeometry x="35" y="1848" width="70" height="30" as="geometry" />
        </mxCell>
        <mxCell id="fzBJJGRwk2IUik0zCbTJ-215" value="owner_id" style="ellipse;whiteSpace=wrap;html=1;strokeColor=default;align=center;verticalAlign=middle;fontFamily=Helvetica;fontSize=12;fontColor=default;fillColor=default;" vertex="1" parent="1">
          <mxGeometry x="60" y="1703.5" width="120" height="30" as="geometry" />
        </mxCell>
        <mxCell id="fzBJJGRwk2IUik0zCbTJ-216" value="phone" style="ellipse;whiteSpace=wrap;html=1;strokeColor=default;align=center;verticalAlign=middle;fontFamily=Helvetica;fontSize=12;fontColor=default;fillColor=default;" vertex="1" parent="1">
          <mxGeometry x="430" y="1916" width="120" height="42" as="geometry" />
        </mxCell>
        <mxCell id="fzBJJGRwk2IUik0zCbTJ-217" value="name" style="ellipse;whiteSpace=wrap;html=1;strokeColor=default;align=center;verticalAlign=middle;fontFamily=Helvetica;fontSize=12;fontColor=default;fillColor=default;" vertex="1" parent="1">
          <mxGeometry x="155" y="2040" width="120" height="30" as="geometry" />
        </mxCell>
        <mxCell id="fzBJJGRwk2IUik0zCbTJ-218" value="customer_id" style="ellipse;whiteSpace=wrap;html=1;strokeColor=default;align=center;verticalAlign=middle;fontFamily=Helvetica;fontSize=12;fontColor=default;fillColor=default;" vertex="1" parent="1">
          <mxGeometry x="170" y="1977.5" width="120" height="27.5" as="geometry" />
        </mxCell>
        <mxCell id="fzBJJGRwk2IUik0zCbTJ-219" value="email" style="ellipse;whiteSpace=wrap;html=1;strokeColor=default;align=center;verticalAlign=middle;fontFamily=Helvetica;fontSize=12;fontColor=default;fillColor=default;" vertex="1" parent="1">
          <mxGeometry x="200" y="2100" width="120" height="32" as="geometry" />
        </mxCell>
        <mxCell id="fzBJJGRwk2IUik0zCbTJ-220" style="edgeStyle=orthogonalEdgeStyle;rounded=0;orthogonalLoop=1;jettySize=auto;html=1;exitX=0.5;exitY=1;exitDx=0;exitDy=0;fontFamily=Helvetica;fontSize=12;fontColor=default;" edge="1" parent="1" source="fzBJJGRwk2IUik0zCbTJ-219" target="fzBJJGRwk2IUik0zCbTJ-219">
          <mxGeometry relative="1" as="geometry" />
        </mxCell>
        <mxCell id="fzBJJGRwk2IUik0zCbTJ-221" style="edgeStyle=orthogonalEdgeStyle;rounded=0;orthogonalLoop=1;jettySize=auto;html=1;exitX=0.5;exitY=1;exitDx=0;exitDy=0;fontFamily=Helvetica;fontSize=12;fontColor=default;" edge="1" parent="1" source="fzBJJGRwk2IUik0zCbTJ-216" target="fzBJJGRwk2IUik0zCbTJ-216">
          <mxGeometry relative="1" as="geometry" />
        </mxCell>
        <mxCell id="fzBJJGRwk2IUik0zCbTJ-222" value="" style="endArrow=none;html=1;rounded=0;fontFamily=Helvetica;fontSize=12;fontColor=default;" edge="1" parent="1">
          <mxGeometry width="50" height="50" relative="1" as="geometry">
            <mxPoint x="80" y="1850" as="sourcePoint" />
            <mxPoint x="100" y="1830" as="targetPoint" />
          </mxGeometry>
        </mxCell>
        <mxCell id="fzBJJGRwk2IUik0zCbTJ-223" value="" style="endArrow=none;html=1;rounded=0;fontFamily=Helvetica;fontSize=12;fontColor=default;exitX=0.283;exitY=0.013;exitDx=0;exitDy=0;exitPerimeter=0;" edge="1" parent="1" source="fzBJJGRwk2IUik0zCbTJ-213">
          <mxGeometry width="50" height="50" relative="1" as="geometry">
            <mxPoint x="100" y="1880" as="sourcePoint" />
            <mxPoint x="150" y="1830" as="targetPoint" />
          </mxGeometry>
        </mxCell>
        <mxCell id="fzBJJGRwk2IUik0zCbTJ-224" value="" style="endArrow=none;html=1;rounded=0;fontFamily=Helvetica;fontSize=12;fontColor=default;entryX=0.3;entryY=0.969;entryDx=0;entryDy=0;entryPerimeter=0;" edge="1" parent="1" target="fzBJJGRwk2IUik0zCbTJ-215">
          <mxGeometry width="50" height="50" relative="1" as="geometry">
            <mxPoint x="90" y="1780" as="sourcePoint" />
            <mxPoint x="140" y="1730" as="targetPoint" />
          </mxGeometry>
        </mxCell>
        <mxCell id="fzBJJGRwk2IUik0zCbTJ-225" value="" style="endArrow=none;html=1;rounded=0;fontFamily=Helvetica;fontSize=12;fontColor=default;exitX=0;exitY=0.5;exitDx=0;exitDy=0;" edge="1" parent="1" source="fzBJJGRwk2IUik0zCbTJ-11">
          <mxGeometry width="50" height="50" relative="1" as="geometry">
            <mxPoint x="240" y="2040" as="sourcePoint" />
            <mxPoint x="290" y="1990" as="targetPoint" />
          </mxGeometry>
        </mxCell>
        <mxCell id="fzBJJGRwk2IUik0zCbTJ-226" value="" style="endArrow=none;html=1;rounded=0;fontFamily=Helvetica;fontSize=12;fontColor=default;entryX=0.158;entryY=1.06;entryDx=0;entryDy=0;entryPerimeter=0;" edge="1" parent="1" target="fzBJJGRwk2IUik0zCbTJ-11">
          <mxGeometry width="50" height="50" relative="1" as="geometry">
            <mxPoint x="270" y="2100" as="sourcePoint" />
            <mxPoint x="320" y="2050" as="targetPoint" />
          </mxGeometry>
        </mxCell>
        <mxCell id="fzBJJGRwk2IUik0zCbTJ-227" value="" style="endArrow=none;html=1;rounded=0;fontFamily=Helvetica;fontSize=12;fontColor=default;" edge="1" parent="1">
          <mxGeometry width="50" height="50" relative="1" as="geometry">
            <mxPoint x="270" y="2060" as="sourcePoint" />
            <mxPoint x="320" y="2010" as="targetPoint" />
          </mxGeometry>
        </mxCell>
        <mxCell id="fzBJJGRwk2IUik0zCbTJ-228" value="" style="endArrow=none;html=1;rounded=0;fontFamily=Helvetica;fontSize=12;fontColor=default;" edge="1" parent="1">
          <mxGeometry width="50" height="50" relative="1" as="geometry">
            <mxPoint x="430" y="1980" as="sourcePoint" />
            <mxPoint x="460" y="1950" as="targetPoint" />
          </mxGeometry>
        </mxCell>
        <mxCell id="fzBJJGRwk2IUik0zCbTJ-229" value="" style="endArrow=none;html=1;rounded=0;fontFamily=Helvetica;fontSize=12;fontColor=default;exitX=0;exitY=0.25;exitDx=0;exitDy=0;" edge="1" parent="1" source="fzBJJGRwk2IUik0zCbTJ-37">
          <mxGeometry width="50" height="50" relative="1" as="geometry">
            <mxPoint x="570" y="2200" as="sourcePoint" />
            <mxPoint x="620" y="2150" as="targetPoint" />
          </mxGeometry>
        </mxCell>
        <mxCell id="fzBJJGRwk2IUik0zCbTJ-230" value="" style="endArrow=none;html=1;rounded=0;fontFamily=Helvetica;fontSize=12;fontColor=default;" edge="1" parent="1" source="fzBJJGRwk2IUik0zCbTJ-212">
          <mxGeometry width="50" height="50" relative="1" as="geometry">
            <mxPoint x="590" y="2250" as="sourcePoint" />
            <mxPoint x="640" y="2200" as="targetPoint" />
          </mxGeometry>
        </mxCell>
        <mxCell id="fzBJJGRwk2IUik0zCbTJ-231" value="" style="endArrow=none;html=1;rounded=0;fontFamily=Helvetica;fontSize=12;fontColor=default;exitX=0.6;exitY=0.013;exitDx=0;exitDy=0;exitPerimeter=0;" edge="1" parent="1" source="fzBJJGRwk2IUik0zCbTJ-210">
          <mxGeometry width="50" height="50" relative="1" as="geometry">
            <mxPoint x="690" y="2250" as="sourcePoint" />
            <mxPoint x="730" y="2210" as="targetPoint" />
          </mxGeometry>
        </mxCell>
        <mxCell id="fzBJJGRwk2IUik0zCbTJ-232" value="" style="endArrow=none;html=1;rounded=0;fontFamily=Helvetica;fontSize=12;fontColor=default;entryX=0.225;entryY=0.088;entryDx=0;entryDy=0;entryPerimeter=0;" edge="1" parent="1" target="fzBJJGRwk2IUik0zCbTJ-209">
          <mxGeometry width="50" height="50" relative="1" as="geometry">
            <mxPoint x="760" y="2190" as="sourcePoint" />
            <mxPoint x="810" y="2140" as="targetPoint" />
          </mxGeometry>
        </mxCell>
        <mxCell id="fzBJJGRwk2IUik0zCbTJ-233" value="" style="endArrow=none;html=1;rounded=0;fontFamily=Helvetica;fontSize=12;fontColor=default;exitX=0.333;exitY=0.053;exitDx=0;exitDy=0;exitPerimeter=0;" edge="1" parent="1" source="fzBJJGRwk2IUik0zCbTJ-38">
          <mxGeometry width="50" height="50" relative="1" as="geometry">
            <mxPoint x="910" y="2000" as="sourcePoint" />
            <mxPoint x="960" y="1950" as="targetPoint" />
          </mxGeometry>
        </mxCell>
        <mxCell id="fzBJJGRwk2IUik0zCbTJ-234" value="" style="endArrow=none;html=1;rounded=0;fontFamily=Helvetica;fontSize=12;fontColor=default;" edge="1" parent="1">
          <mxGeometry width="50" height="50" relative="1" as="geometry">
            <mxPoint x="1040" y="1980" as="sourcePoint" />
            <mxPoint x="1070" y="1950" as="targetPoint" />
          </mxGeometry>
        </mxCell>
        <mxCell id="fzBJJGRwk2IUik0zCbTJ-235" value="" style="endArrow=none;html=1;rounded=0;fontFamily=Helvetica;fontSize=12;fontColor=default;entryX=0.325;entryY=0.05;entryDx=0;entryDy=0;entryPerimeter=0;" edge="1" parent="1" target="fzBJJGRwk2IUik0zCbTJ-206">
          <mxGeometry width="50" height="50" relative="1" as="geometry">
            <mxPoint x="1070" y="2010" as="sourcePoint" />
            <mxPoint x="1120" y="1960" as="targetPoint" />
          </mxGeometry>
        </mxCell>
        <mxCell id="fzBJJGRwk2IUik0zCbTJ-236" value="" style="endArrow=none;html=1;rounded=0;fontFamily=Helvetica;fontSize=12;fontColor=default;exitX=0.5;exitY=0;exitDx=0;exitDy=0;" edge="1" parent="1" source="fzBJJGRwk2IUik0zCbTJ-205">
          <mxGeometry width="50" height="50" relative="1" as="geometry">
            <mxPoint x="940" y="2080" as="sourcePoint" />
            <mxPoint x="990" y="2030" as="targetPoint" />
          </mxGeometry>
        </mxCell>
        <mxCell id="fzBJJGRwk2IUik0zCbTJ-237" value="" style="endArrow=none;html=1;rounded=0;fontFamily=Helvetica;fontSize=12;fontColor=default;" edge="1" parent="1">
          <mxGeometry width="50" height="50" relative="1" as="geometry">
            <mxPoint x="620" y="1760" as="sourcePoint" />
            <mxPoint x="660" y="1720" as="targetPoint" />
          </mxGeometry>
        </mxCell>
        <mxCell id="fzBJJGRwk2IUik0zCbTJ-238" value="" style="endArrow=none;html=1;rounded=0;fontFamily=Helvetica;fontSize=12;fontColor=default;exitX=0.083;exitY=0.111;exitDx=0;exitDy=0;exitPerimeter=0;" edge="1" parent="1" source="fzBJJGRwk2IUik0zCbTJ-202">
          <mxGeometry width="50" height="50" relative="1" as="geometry">
            <mxPoint x="690" y="1770" as="sourcePoint" />
            <mxPoint x="740" y="1720" as="targetPoint" />
          </mxGeometry>
        </mxCell>
        <mxCell id="fzBJJGRwk2IUik0zCbTJ-239" value="" style="endArrow=none;html=1;rounded=0;fontFamily=Helvetica;fontSize=12;fontColor=default;exitX=1;exitY=0.5;exitDx=0;exitDy=0;" edge="1" parent="1" source="fzBJJGRwk2IUik0zCbTJ-39">
          <mxGeometry width="50" height="50" relative="1" as="geometry">
            <mxPoint x="780" y="1740" as="sourcePoint" />
            <mxPoint x="830" y="1690" as="targetPoint" />
          </mxGeometry>
        </mxCell>
        <mxCell id="fzBJJGRwk2IUik0zCbTJ-240" value="" style="endArrow=none;html=1;rounded=0;fontFamily=Helvetica;fontSize=12;fontColor=default;exitX=0.833;exitY=0.05;exitDx=0;exitDy=0;exitPerimeter=0;" edge="1" parent="1" source="fzBJJGRwk2IUik0zCbTJ-39">
          <mxGeometry width="50" height="50" relative="1" as="geometry">
            <mxPoint x="710" y="1710" as="sourcePoint" />
            <mxPoint x="760" y="1660" as="targetPoint" />
          </mxGeometry>
        </mxCell>
        <mxCell id="fzBJJGRwk2IUik0zCbTJ-241" value="" style="endArrow=none;html=1;rounded=0;fontFamily=Helvetica;fontSize=12;fontColor=default;exitX=1;exitY=0.75;exitDx=0;exitDy=0;" edge="1" parent="1" source="fzBJJGRwk2IUik0zCbTJ-39">
          <mxGeometry width="50" height="50" relative="1" as="geometry">
            <mxPoint x="740" y="1790" as="sourcePoint" />
            <mxPoint x="790" y="1740" as="targetPoint" />
          </mxGeometry>
        </mxCell>
        <mxCell id="fzBJJGRwk2IUik0zCbTJ-242" value="order_id" style="ellipse;whiteSpace=wrap;html=1;strokeColor=default;align=center;verticalAlign=middle;fontFamily=Helvetica;fontSize=12;fontColor=default;fillColor=default;" vertex="1" parent="1">
          <mxGeometry x="565" y="1926" width="120" height="32" as="geometry" />
        </mxCell>
        <mxCell id="fzBJJGRwk2IUik0zCbTJ-243" value="date" style="ellipse;whiteSpace=wrap;html=1;strokeColor=default;align=center;verticalAlign=middle;fontFamily=Helvetica;fontSize=12;fontColor=default;fillColor=default;" vertex="1" parent="1">
          <mxGeometry x="750" y="2045" width="120" height="30" as="geometry" />
        </mxCell>
        <mxCell id="fzBJJGRwk2IUik0zCbTJ-244" value="status" style="ellipse;whiteSpace=wrap;html=1;strokeColor=default;align=center;verticalAlign=middle;fontFamily=Helvetica;fontSize=12;fontColor=default;fillColor=default;" vertex="1" parent="1">
          <mxGeometry x="540" y="2045" width="120" height="30" as="geometry" />
        </mxCell>
        <mxCell id="fzBJJGRwk2IUik0zCbTJ-245" value="customer_id" style="ellipse;whiteSpace=wrap;html=1;strokeColor=default;align=center;verticalAlign=middle;fontFamily=Helvetica;fontSize=12;fontColor=default;fillColor=default;" vertex="1" parent="1">
          <mxGeometry x="705" y="1916" width="120" height="20" as="geometry" />
        </mxCell>
        <mxCell id="fzBJJGRwk2IUik0zCbTJ-246" value="" style="endArrow=none;html=1;rounded=0;fontFamily=Helvetica;fontSize=12;fontColor=default;" edge="1" parent="1">
          <mxGeometry width="50" height="50" relative="1" as="geometry">
            <mxPoint x="670" y="1980" as="sourcePoint" />
            <mxPoint x="650" y="1960" as="targetPoint" />
          </mxGeometry>
        </mxCell>
        <mxCell id="fzBJJGRwk2IUik0zCbTJ-247" value="" style="endArrow=none;html=1;rounded=0;fontFamily=Helvetica;fontSize=12;fontColor=default;" edge="1" parent="1">
          <mxGeometry width="50" height="50" relative="1" as="geometry">
            <mxPoint x="730" y="1980" as="sourcePoint" />
            <mxPoint x="780" y="1940" as="targetPoint" />
          </mxGeometry>
        </mxCell>
        <mxCell id="fzBJJGRwk2IUik0zCbTJ-248" value="" style="endArrow=none;html=1;rounded=0;fontFamily=Helvetica;fontSize=12;fontColor=default;exitX=0.75;exitY=0.167;exitDx=0;exitDy=0;exitPerimeter=0;" edge="1" parent="1" source="fzBJJGRwk2IUik0zCbTJ-244">
          <mxGeometry width="50" height="50" relative="1" as="geometry">
            <mxPoint x="610" y="2080" as="sourcePoint" />
            <mxPoint x="660" y="2030" as="targetPoint" />
          </mxGeometry>
        </mxCell>
        <mxCell id="fzBJJGRwk2IUik0zCbTJ-249" value="" style="endArrow=none;html=1;rounded=0;fontFamily=Helvetica;fontSize=12;fontColor=default;entryX=0.942;entryY=0.967;entryDx=0;entryDy=0;entryPerimeter=0;exitX=0.5;exitY=0;exitDx=0;exitDy=0;" edge="1" parent="1" source="fzBJJGRwk2IUik0zCbTJ-243" target="fzBJJGRwk2IUik0zCbTJ-25">
          <mxGeometry width="50" height="50" relative="1" as="geometry">
            <mxPoint x="700" y="2150" as="sourcePoint" />
            <mxPoint x="750" y="2100" as="targetPoint" />
          </mxGeometry>
        </mxCell>
        <mxCell id="fzBJJGRwk2IUik0zCbTJ-250" value="rating" style="ellipse;whiteSpace=wrap;html=1;strokeColor=default;align=center;verticalAlign=middle;fontFamily=Helvetica;fontSize=12;fontColor=default;fillColor=default;" vertex="1" parent="1">
          <mxGeometry x="160" y="2240" width="120" height="40" as="geometry" />
        </mxCell>
        <mxCell id="fzBJJGRwk2IUik0zCbTJ-251" value="comments" style="ellipse;whiteSpace=wrap;html=1;strokeColor=default;align=center;verticalAlign=middle;fontFamily=Helvetica;fontSize=12;fontColor=default;fillColor=default;" vertex="1" parent="1">
          <mxGeometry x="245" y="2300" width="120" height="40" as="geometry" />
        </mxCell>
        <mxCell id="fzBJJGRwk2IUik0zCbTJ-252" value="customer_id" style="ellipse;whiteSpace=wrap;html=1;strokeColor=default;align=center;verticalAlign=middle;fontFamily=Helvetica;fontSize=12;fontColor=default;fillColor=default;" vertex="1" parent="1">
          <mxGeometry x="380" y="2260" width="120" height="30" as="geometry" />
        </mxCell>
        <mxCell id="fzBJJGRwk2IUik0zCbTJ-253" value="feedback_id" style="ellipse;whiteSpace=wrap;html=1;strokeColor=default;align=center;verticalAlign=middle;fontFamily=Helvetica;fontSize=12;fontColor=default;fillColor=default;" vertex="1" parent="1">
          <mxGeometry x="180" y="2175" width="120" height="35" as="geometry" />
        </mxCell>
        <mxCell id="fzBJJGRwk2IUik0zCbTJ-254" value="" style="endArrow=none;html=1;rounded=0;fontFamily=Helvetica;fontSize=12;fontColor=default;exitX=1;exitY=0.5;exitDx=0;exitDy=0;" edge="1" parent="1" source="fzBJJGRwk2IUik0zCbTJ-253">
          <mxGeometry width="50" height="50" relative="1" as="geometry">
            <mxPoint x="270" y="2240" as="sourcePoint" />
            <mxPoint x="320" y="2190" as="targetPoint" />
          </mxGeometry>
        </mxCell>
        <mxCell id="fzBJJGRwk2IUik0zCbTJ-255" value="" style="endArrow=none;html=1;rounded=0;fontFamily=Helvetica;fontSize=12;fontColor=default;" edge="1" parent="1">
          <mxGeometry width="50" height="50" relative="1" as="geometry">
            <mxPoint x="270" y="2250" as="sourcePoint" />
            <mxPoint x="320" y="2200" as="targetPoint" />
          </mxGeometry>
        </mxCell>
        <mxCell id="fzBJJGRwk2IUik0zCbTJ-256" value="" style="endArrow=none;html=1;rounded=0;fontFamily=Helvetica;fontSize=12;fontColor=default;exitX=0.4;exitY=-0.05;exitDx=0;exitDy=0;exitPerimeter=0;" edge="1" parent="1" source="fzBJJGRwk2IUik0zCbTJ-251">
          <mxGeometry width="50" height="50" relative="1" as="geometry">
            <mxPoint x="320" y="2260" as="sourcePoint" />
            <mxPoint x="370" y="2210" as="targetPoint" />
          </mxGeometry>
        </mxCell>
        <mxCell id="fzBJJGRwk2IUik0zCbTJ-257" value="" style="endArrow=none;html=1;rounded=0;fontFamily=Helvetica;fontSize=12;fontColor=default;" edge="1" parent="1" source="fzBJJGRwk2IUik0zCbTJ-252">
          <mxGeometry width="50" height="50" relative="1" as="geometry">
            <mxPoint x="360" y="2260" as="sourcePoint" />
            <mxPoint x="410" y="2210" as="targetPoint" />
          </mxGeometry>
        </mxCell>
        <mxCell id="fzBJJGRwk2IUik0zCbTJ-258" value="salary" style="ellipse;whiteSpace=wrap;html=1;strokeColor=default;align=center;verticalAlign=middle;fontFamily=Helvetica;fontSize=12;fontColor=default;fillColor=default;" vertex="1" parent="1">
          <mxGeometry x="260" y="1872.5" width="80" height="17.5" as="geometry" />
        </mxCell>
        <mxCell id="fzBJJGRwk2IUik0zCbTJ-259" value="employee_id" style="ellipse;whiteSpace=wrap;html=1;strokeColor=default;align=center;verticalAlign=middle;fontFamily=Helvetica;fontSize=12;fontColor=default;fillColor=default;" vertex="1" parent="1">
          <mxGeometry x="330" y="1733.5" width="70" height="32" as="geometry" />
        </mxCell>
        <mxCell id="fzBJJGRwk2IUik0zCbTJ-260" value="role" style="ellipse;whiteSpace=wrap;html=1;strokeColor=default;align=center;verticalAlign=middle;fontFamily=Helvetica;fontSize=12;fontColor=default;fillColor=default;" vertex="1" parent="1">
          <mxGeometry x="400" y="1848" width="70" height="30" as="geometry" />
        </mxCell>
        <mxCell id="fzBJJGRwk2IUik0zCbTJ-261" value="name" style="ellipse;whiteSpace=wrap;html=1;strokeColor=default;align=center;verticalAlign=middle;fontFamily=Helvetica;fontSize=12;fontColor=default;fillColor=default;" vertex="1" parent="1">
          <mxGeometry x="460" y="1780" width="50" height="34" as="geometry" />
        </mxCell>
        <mxCell id="fzBJJGRwk2IUik0zCbTJ-262" value="owner_id" style="ellipse;whiteSpace=wrap;html=1;strokeColor=default;align=center;verticalAlign=middle;fontFamily=Helvetica;fontSize=12;fontColor=default;fillColor=default;" vertex="1" parent="1">
          <mxGeometry x="240" y="1829" width="90" height="21" as="geometry" />
        </mxCell>
        <mxCell id="fzBJJGRwk2IUik0zCbTJ-263" value="" style="endArrow=none;html=1;rounded=0;fontFamily=Helvetica;fontSize=12;fontColor=default;exitX=0.713;exitY=0.014;exitDx=0;exitDy=0;exitPerimeter=0;" edge="1" parent="1" source="fzBJJGRwk2IUik0zCbTJ-258">
          <mxGeometry width="50" height="50" relative="1" as="geometry">
            <mxPoint x="310" y="1880" as="sourcePoint" />
            <mxPoint x="360" y="1830" as="targetPoint" />
          </mxGeometry>
        </mxCell>
        <mxCell id="fzBJJGRwk2IUik0zCbTJ-264" value="" style="endArrow=none;html=1;rounded=0;fontFamily=Helvetica;fontSize=12;fontColor=default;exitX=0.733;exitY=0.031;exitDx=0;exitDy=0;exitPerimeter=0;" edge="1" parent="1" source="fzBJJGRwk2IUik0zCbTJ-262">
          <mxGeometry width="50" height="50" relative="1" as="geometry">
            <mxPoint x="270" y="1870" as="sourcePoint" />
            <mxPoint x="320" y="1820" as="targetPoint" />
          </mxGeometry>
        </mxCell>
        <mxCell id="fzBJJGRwk2IUik0zCbTJ-265" value="" style="endArrow=none;html=1;rounded=0;fontFamily=Helvetica;fontSize=12;fontColor=default;" edge="1" parent="1">
          <mxGeometry width="50" height="50" relative="1" as="geometry">
            <mxPoint x="370" y="1780" as="sourcePoint" />
            <mxPoint x="380" y="1760" as="targetPoint" />
          </mxGeometry>
        </mxCell>
        <mxCell id="fzBJJGRwk2IUik0zCbTJ-266" value="" style="endArrow=none;html=1;rounded=0;fontFamily=Helvetica;fontSize=12;fontColor=default;entryX=0;entryY=0.5;entryDx=0;entryDy=0;exitX=1;exitY=0.5;exitDx=0;exitDy=0;" edge="1" parent="1" source="fzBJJGRwk2IUik0zCbTJ-7" target="fzBJJGRwk2IUik0zCbTJ-261">
          <mxGeometry width="50" height="50" relative="1" as="geometry">
            <mxPoint x="400" y="1850" as="sourcePoint" />
            <mxPoint x="450" y="1800" as="targetPoint" />
          </mxGeometry>
        </mxCell>
        <mxCell id="fzBJJGRwk2IUik0zCbTJ-268" value="" style="endArrow=none;html=1;rounded=0;fontFamily=Helvetica;fontSize=12;fontColor=default;entryX=0.356;entryY=-0.1;entryDx=0;entryDy=0;entryPerimeter=0;exitX=0.858;exitY=1.011;exitDx=0;exitDy=0;exitPerimeter=0;" edge="1" parent="1" source="fzBJJGRwk2IUik0zCbTJ-7" target="fzBJJGRwk2IUik0zCbTJ-260">
          <mxGeometry width="50" height="50" relative="1" as="geometry">
            <mxPoint x="330" y="1880" as="sourcePoint" />
            <mxPoint x="380" y="1830" as="targetPoint" />
          </mxGeometry>
        </mxCell>
      </root>
    </mxGraphModel>
  </diagram>
</mxfile>
